<mxfile host="app.diagrams.net" agent="Mozilla/5.0 (Windows NT 10.0; Win64; x64) AppleWebKit/537.36 (KHTML, like Gecko) Chrome/136.0.0.0 Safari/537.36" version="27.0.9">
  <diagram id="PzHTcKvuOduZSgywX2gt" name="Страница — 1">
    <mxGraphModel dx="1097" dy="563" grid="0" gridSize="10" guides="1" tooltips="1" connect="1" arrows="1" fold="1" page="0" pageScale="1" pageWidth="827" pageHeight="1169" math="0" shadow="0">
      <root>
        <mxCell id="0" />
        <mxCell id="1" parent="0" />
        <mxCell id="YluIrXPb2VJz5zlcLolb-1" value="Администратор" style="rounded=0;whiteSpace=wrap;html=1;" parent="1" vertex="1">
          <mxGeometry x="50" y="30" width="120" height="50" as="geometry" />
        </mxCell>
        <mxCell id="YluIrXPb2VJz5zlcLolb-2" value="GUI" style="rounded=0;whiteSpace=wrap;html=1;" parent="1" vertex="1">
          <mxGeometry x="294" y="30" width="120" height="50" as="geometry" />
        </mxCell>
        <mxCell id="YluIrXPb2VJz5zlcLolb-3" value="Блок обработки запроса" style="rounded=0;whiteSpace=wrap;html=1;" parent="1" vertex="1">
          <mxGeometry x="540" y="30" width="120" height="50" as="geometry" />
        </mxCell>
        <mxCell id="YluIrXPb2VJz5zlcLolb-4" value="Блок сервиса по управлению вторсырьем" style="rounded=0;whiteSpace=wrap;html=1;" parent="1" vertex="1">
          <mxGeometry x="776" y="30" width="120" height="50" as="geometry" />
        </mxCell>
        <mxCell id="YluIrXPb2VJz5zlcLolb-5" value="Блок базы данных" style="rounded=0;whiteSpace=wrap;html=1;" parent="1" vertex="1">
          <mxGeometry x="1026" y="30" width="120" height="50" as="geometry" />
        </mxCell>
        <mxCell id="YluIrXPb2VJz5zlcLolb-6" value="" style="endArrow=none;html=1;rounded=0;entryX=0.5;entryY=1;entryDx=0;entryDy=0;dashed=1;dashPattern=12 12;" parent="1" source="YluIrXPb2VJz5zlcLolb-29" target="YluIrXPb2VJz5zlcLolb-2" edge="1">
          <mxGeometry width="50" height="50" relative="1" as="geometry">
            <mxPoint x="354" y="610" as="sourcePoint" />
            <mxPoint x="620" y="350" as="targetPoint" />
          </mxGeometry>
        </mxCell>
        <mxCell id="YluIrXPb2VJz5zlcLolb-7" value="" style="endArrow=none;html=1;rounded=0;entryX=0.5;entryY=1;entryDx=0;entryDy=0;dashed=1;dashPattern=12 12;" parent="1" edge="1">
          <mxGeometry width="50" height="50" relative="1" as="geometry">
            <mxPoint x="109.5" y="610" as="sourcePoint" />
            <mxPoint x="109.5" y="80" as="targetPoint" />
          </mxGeometry>
        </mxCell>
        <mxCell id="YluIrXPb2VJz5zlcLolb-8" value="" style="endArrow=none;html=1;rounded=0;entryX=0.5;entryY=1;entryDx=0;entryDy=0;dashed=1;dashPattern=12 12;" parent="1" source="YluIrXPb2VJz5zlcLolb-38" edge="1">
          <mxGeometry width="50" height="50" relative="1" as="geometry">
            <mxPoint x="600" y="610" as="sourcePoint" />
            <mxPoint x="600" y="80" as="targetPoint" />
          </mxGeometry>
        </mxCell>
        <mxCell id="YluIrXPb2VJz5zlcLolb-9" value="" style="endArrow=none;html=1;rounded=0;entryX=0.5;entryY=1;entryDx=0;entryDy=0;dashed=1;dashPattern=12 12;" parent="1" edge="1">
          <mxGeometry width="50" height="50" relative="1" as="geometry">
            <mxPoint x="835.5" y="610" as="sourcePoint" />
            <mxPoint x="835.5" y="80" as="targetPoint" />
          </mxGeometry>
        </mxCell>
        <mxCell id="YluIrXPb2VJz5zlcLolb-10" value="" style="endArrow=none;html=1;rounded=0;entryX=0.5;entryY=1;entryDx=0;entryDy=0;dashed=1;dashPattern=12 12;" parent="1" source="YluIrXPb2VJz5zlcLolb-53" edge="1">
          <mxGeometry width="50" height="50" relative="1" as="geometry">
            <mxPoint x="1086" y="610" as="sourcePoint" />
            <mxPoint x="1086" y="80" as="targetPoint" />
          </mxGeometry>
        </mxCell>
        <mxCell id="YluIrXPb2VJz5zlcLolb-11" value="" style="group" parent="1" vertex="1" connectable="0">
          <mxGeometry x="585" y="610" width="30" height="30" as="geometry" />
        </mxCell>
        <mxCell id="YluIrXPb2VJz5zlcLolb-12" value="" style="endArrow=none;html=1;rounded=0;" parent="YluIrXPb2VJz5zlcLolb-11" edge="1">
          <mxGeometry width="50" height="50" relative="1" as="geometry">
            <mxPoint y="30" as="sourcePoint" />
            <mxPoint x="30" as="targetPoint" />
          </mxGeometry>
        </mxCell>
        <mxCell id="YluIrXPb2VJz5zlcLolb-13" value="" style="endArrow=none;html=1;rounded=0;" parent="YluIrXPb2VJz5zlcLolb-11" edge="1">
          <mxGeometry width="50" height="50" relative="1" as="geometry">
            <mxPoint x="30" y="30" as="sourcePoint" />
            <mxPoint as="targetPoint" />
          </mxGeometry>
        </mxCell>
        <mxCell id="YluIrXPb2VJz5zlcLolb-14" value="" style="group" parent="1" vertex="1" connectable="0">
          <mxGeometry x="821" y="612" width="30" height="30" as="geometry" />
        </mxCell>
        <mxCell id="YluIrXPb2VJz5zlcLolb-15" value="" style="endArrow=none;html=1;rounded=0;" parent="YluIrXPb2VJz5zlcLolb-14" edge="1">
          <mxGeometry width="50" height="50" relative="1" as="geometry">
            <mxPoint y="30" as="sourcePoint" />
            <mxPoint x="30" as="targetPoint" />
          </mxGeometry>
        </mxCell>
        <mxCell id="YluIrXPb2VJz5zlcLolb-16" value="" style="endArrow=none;html=1;rounded=0;" parent="YluIrXPb2VJz5zlcLolb-14" edge="1">
          <mxGeometry width="50" height="50" relative="1" as="geometry">
            <mxPoint x="30" y="30" as="sourcePoint" />
            <mxPoint as="targetPoint" />
          </mxGeometry>
        </mxCell>
        <mxCell id="YluIrXPb2VJz5zlcLolb-17" value="" style="group" parent="1" vertex="1" connectable="0">
          <mxGeometry x="1070" y="613" width="30" height="30" as="geometry" />
        </mxCell>
        <mxCell id="YluIrXPb2VJz5zlcLolb-18" value="" style="endArrow=none;html=1;rounded=0;" parent="YluIrXPb2VJz5zlcLolb-17" edge="1">
          <mxGeometry width="50" height="50" relative="1" as="geometry">
            <mxPoint y="30" as="sourcePoint" />
            <mxPoint x="30" as="targetPoint" />
          </mxGeometry>
        </mxCell>
        <mxCell id="YluIrXPb2VJz5zlcLolb-19" value="" style="endArrow=none;html=1;rounded=0;" parent="YluIrXPb2VJz5zlcLolb-17" edge="1">
          <mxGeometry width="50" height="50" relative="1" as="geometry">
            <mxPoint x="30" y="30" as="sourcePoint" />
            <mxPoint as="targetPoint" />
          </mxGeometry>
        </mxCell>
        <mxCell id="YluIrXPb2VJz5zlcLolb-20" value="" style="group" parent="1" vertex="1" connectable="0">
          <mxGeometry x="339" y="612" width="30" height="30" as="geometry" />
        </mxCell>
        <mxCell id="YluIrXPb2VJz5zlcLolb-21" value="" style="endArrow=none;html=1;rounded=0;" parent="YluIrXPb2VJz5zlcLolb-20" edge="1">
          <mxGeometry width="50" height="50" relative="1" as="geometry">
            <mxPoint y="30" as="sourcePoint" />
            <mxPoint x="30" as="targetPoint" />
          </mxGeometry>
        </mxCell>
        <mxCell id="YluIrXPb2VJz5zlcLolb-22" value="" style="endArrow=none;html=1;rounded=0;" parent="YluIrXPb2VJz5zlcLolb-20" edge="1">
          <mxGeometry width="50" height="50" relative="1" as="geometry">
            <mxPoint x="30" y="30" as="sourcePoint" />
            <mxPoint as="targetPoint" />
          </mxGeometry>
        </mxCell>
        <mxCell id="YluIrXPb2VJz5zlcLolb-23" value="" style="group" parent="1" vertex="1" connectable="0">
          <mxGeometry x="94" y="614" width="30" height="30" as="geometry" />
        </mxCell>
        <mxCell id="YluIrXPb2VJz5zlcLolb-24" value="" style="endArrow=none;html=1;rounded=0;" parent="YluIrXPb2VJz5zlcLolb-23" edge="1">
          <mxGeometry width="50" height="50" relative="1" as="geometry">
            <mxPoint y="30" as="sourcePoint" />
            <mxPoint x="30" as="targetPoint" />
          </mxGeometry>
        </mxCell>
        <mxCell id="YluIrXPb2VJz5zlcLolb-25" value="" style="endArrow=none;html=1;rounded=0;" parent="YluIrXPb2VJz5zlcLolb-23" edge="1">
          <mxGeometry width="50" height="50" relative="1" as="geometry">
            <mxPoint x="30" y="30" as="sourcePoint" />
            <mxPoint as="targetPoint" />
          </mxGeometry>
        </mxCell>
        <mxCell id="YluIrXPb2VJz5zlcLolb-26" value="" style="rounded=0;whiteSpace=wrap;html=1;" parent="1" vertex="1">
          <mxGeometry x="100" y="100" width="20" height="470" as="geometry" />
        </mxCell>
        <mxCell id="YluIrXPb2VJz5zlcLolb-27" value="" style="endArrow=block;html=1;rounded=0;entryX=0.066;entryY=1.005;entryDx=0;entryDy=0;entryPerimeter=0;endFill=1;" parent="1" target="YluIrXPb2VJz5zlcLolb-32" edge="1">
          <mxGeometry width="50" height="50" relative="1" as="geometry">
            <mxPoint x="124" y="120" as="sourcePoint" />
            <mxPoint x="340" y="120" as="targetPoint" />
          </mxGeometry>
        </mxCell>
        <mxCell id="YluIrXPb2VJz5zlcLolb-28" value="" style="endArrow=none;html=1;rounded=0;entryX=0.5;entryY=1;entryDx=0;entryDy=0;dashed=1;dashPattern=12 12;" parent="1" target="YluIrXPb2VJz5zlcLolb-29" edge="1">
          <mxGeometry width="50" height="50" relative="1" as="geometry">
            <mxPoint x="354" y="610" as="sourcePoint" />
            <mxPoint x="354" y="80" as="targetPoint" />
          </mxGeometry>
        </mxCell>
        <mxCell id="YluIrXPb2VJz5zlcLolb-29" value="" style="rounded=0;whiteSpace=wrap;html=1;" parent="1" vertex="1">
          <mxGeometry x="344" y="110" width="20" height="410" as="geometry" />
        </mxCell>
        <mxCell id="YluIrXPb2VJz5zlcLolb-30" value="&lt;font style=&quot;font-size: 9px;&quot;&gt;Переход на страницу добавления вторсырья&lt;/font&gt;" style="text;html=1;align=center;verticalAlign=middle;whiteSpace=wrap;rounded=0;" parent="1" vertex="1">
          <mxGeometry x="124" y="100" width="210" height="20" as="geometry" />
        </mxCell>
        <mxCell id="YluIrXPb2VJz5zlcLolb-31" value="" style="endArrow=block;html=1;rounded=0;exitX=1.3;exitY=0.021;exitDx=0;exitDy=0;exitPerimeter=0;entryX=1.3;entryY=0.064;entryDx=0;entryDy=0;entryPerimeter=0;endFill=1;" parent="1" edge="1">
          <mxGeometry width="50" height="50" relative="1" as="geometry">
            <mxPoint x="364.0000000000002" y="120" as="sourcePoint" />
            <mxPoint x="364.0000000000002" y="140.21000000000004" as="targetPoint" />
            <Array as="points">
              <mxPoint x="474" y="120.13" />
              <mxPoint x="474" y="140.13" />
            </Array>
          </mxGeometry>
        </mxCell>
        <mxCell id="YluIrXPb2VJz5zlcLolb-32" value="&lt;div style=&quot;line-height: 70%;&quot;&gt;&lt;font style=&quot;font-size: 9px; line-height: 70%;&quot;&gt;Инициализация элементов&lt;/font&gt;&lt;div&gt;&lt;font style=&quot;font-size: 9px; line-height: 70%;&quot;&gt;&amp;nbsp;пользовательского интерфейса&lt;/font&gt;&lt;/div&gt;&lt;/div&gt;" style="text;html=1;align=center;verticalAlign=middle;whiteSpace=wrap;rounded=0;spacing=2;" parent="1" vertex="1">
          <mxGeometry x="330" y="100" width="210" height="20" as="geometry" />
        </mxCell>
        <mxCell id="YluIrXPb2VJz5zlcLolb-33" value="" style="endArrow=block;html=1;rounded=0;entryX=1.128;entryY=0.091;entryDx=0;entryDy=0;entryPerimeter=0;dashed=1;dashPattern=12 12;endFill=1;" parent="1" target="YluIrXPb2VJz5zlcLolb-26" edge="1">
          <mxGeometry width="50" height="50" relative="1" as="geometry">
            <mxPoint x="340" y="143" as="sourcePoint" />
            <mxPoint x="410" y="290" as="targetPoint" />
          </mxGeometry>
        </mxCell>
        <mxCell id="YluIrXPb2VJz5zlcLolb-34" value="&lt;font style=&quot;font-size: 9px;&quot;&gt;Отображение интерфейса&lt;/font&gt;" style="text;html=1;align=center;verticalAlign=middle;whiteSpace=wrap;rounded=0;" parent="1" vertex="1">
          <mxGeometry x="129" y="124" width="210" height="20" as="geometry" />
        </mxCell>
        <mxCell id="YluIrXPb2VJz5zlcLolb-35" value="" style="endArrow=block;html=1;rounded=0;exitX=1.039;exitY=0.152;exitDx=0;exitDy=0;exitPerimeter=0;entryX=-0.032;entryY=0.151;entryDx=0;entryDy=0;entryPerimeter=0;endFill=1;" parent="1" source="YluIrXPb2VJz5zlcLolb-26" target="YluIrXPb2VJz5zlcLolb-29" edge="1">
          <mxGeometry width="50" height="50" relative="1" as="geometry">
            <mxPoint x="120" y="170" as="sourcePoint" />
            <mxPoint x="343" y="170" as="targetPoint" />
          </mxGeometry>
        </mxCell>
        <mxCell id="YluIrXPb2VJz5zlcLolb-36" value="&lt;font style=&quot;font-size: 9px;&quot;&gt;Заполнение данных и нажатие кнопки добавить&lt;/font&gt;" style="text;html=1;align=center;verticalAlign=middle;whiteSpace=wrap;rounded=0;" parent="1" vertex="1">
          <mxGeometry x="129" y="150" width="210" height="20" as="geometry" />
        </mxCell>
        <mxCell id="YluIrXPb2VJz5zlcLolb-37" value="" style="endArrow=none;html=1;rounded=0;entryX=0.5;entryY=1;entryDx=0;entryDy=0;dashed=1;dashPattern=12 12;" parent="1" target="YluIrXPb2VJz5zlcLolb-38" edge="1">
          <mxGeometry width="50" height="50" relative="1" as="geometry">
            <mxPoint x="600" y="610" as="sourcePoint" />
            <mxPoint x="600" y="80" as="targetPoint" />
          </mxGeometry>
        </mxCell>
        <mxCell id="YluIrXPb2VJz5zlcLolb-38" value="" style="rounded=0;whiteSpace=wrap;html=1;" parent="1" vertex="1">
          <mxGeometry x="590" y="144" width="20" height="356" as="geometry" />
        </mxCell>
        <mxCell id="YluIrXPb2VJz5zlcLolb-39" value="" style="endArrow=block;html=1;rounded=0;exitX=1;exitY=0.5;exitDx=0;exitDy=0;entryX=-0.019;entryY=0.129;entryDx=0;entryDy=0;entryPerimeter=0;endFill=1;" parent="1" edge="1">
          <mxGeometry width="50" height="50" relative="1" as="geometry">
            <mxPoint x="364" y="170" as="sourcePoint" />
            <mxPoint x="588" y="171" as="targetPoint" />
          </mxGeometry>
        </mxCell>
        <mxCell id="YluIrXPb2VJz5zlcLolb-40" value="&lt;font style=&quot;font-size: 9px;&quot;&gt;Запрос на добавление вторсырья&lt;/font&gt;" style="text;html=1;align=center;verticalAlign=middle;whiteSpace=wrap;rounded=0;" parent="1" vertex="1">
          <mxGeometry x="364" y="150" width="210" height="20" as="geometry" />
        </mxCell>
        <mxCell id="YluIrXPb2VJz5zlcLolb-41" value="" style="endArrow=block;html=1;rounded=0;exitX=1.3;exitY=0.021;exitDx=0;exitDy=0;exitPerimeter=0;entryX=1.3;entryY=0.064;entryDx=0;entryDy=0;entryPerimeter=0;endFill=1;" parent="1" edge="1">
          <mxGeometry width="50" height="50" relative="1" as="geometry">
            <mxPoint x="610.0000000000002" y="170" as="sourcePoint" />
            <mxPoint x="610.0000000000002" y="190.21000000000004" as="targetPoint" />
            <Array as="points">
              <mxPoint x="720" y="170.13" />
              <mxPoint x="720" y="190.13" />
            </Array>
          </mxGeometry>
        </mxCell>
        <mxCell id="YluIrXPb2VJz5zlcLolb-42" value="&lt;div style=&quot;line-height: 70%;&quot;&gt;&lt;font style=&quot;font-size: 9px;&quot;&gt;Валидация данных&lt;/font&gt;&lt;/div&gt;" style="text;html=1;align=center;verticalAlign=middle;whiteSpace=wrap;rounded=0;spacing=2;" parent="1" vertex="1">
          <mxGeometry x="566" y="151" width="210" height="20" as="geometry" />
        </mxCell>
        <mxCell id="YluIrXPb2VJz5zlcLolb-43" value="" style="endArrow=block;html=1;rounded=0;exitX=1;exitY=0.5;exitDx=0;exitDy=0;entryX=0.112;entryY=0.044;entryDx=0;entryDy=0;entryPerimeter=0;endFill=1;" parent="1" target="YluIrXPb2VJz5zlcLolb-45" edge="1">
          <mxGeometry width="50" height="50" relative="1" as="geometry">
            <mxPoint x="610" y="219" as="sourcePoint" />
            <mxPoint x="834" y="220" as="targetPoint" />
          </mxGeometry>
        </mxCell>
        <mxCell id="YluIrXPb2VJz5zlcLolb-44" value="&lt;font style=&quot;font-size: 9px;&quot;&gt;Запрос на обработку полученных данных&lt;/font&gt;" style="text;html=1;align=center;verticalAlign=middle;whiteSpace=wrap;rounded=0;" parent="1" vertex="1">
          <mxGeometry x="619" y="193" width="200" height="30" as="geometry" />
        </mxCell>
        <mxCell id="YluIrXPb2VJz5zlcLolb-45" value="" style="rounded=0;whiteSpace=wrap;html=1;" parent="1" vertex="1">
          <mxGeometry x="826" y="208" width="20" height="238" as="geometry" />
        </mxCell>
        <mxCell id="YluIrXPb2VJz5zlcLolb-46" value="" style="endArrow=block;html=1;rounded=0;exitX=1.3;exitY=0.021;exitDx=0;exitDy=0;exitPerimeter=0;entryX=1.3;entryY=0.064;entryDx=0;entryDy=0;entryPerimeter=0;endFill=1;" parent="1" edge="1">
          <mxGeometry width="50" height="50" relative="1" as="geometry">
            <mxPoint x="846.0000000000002" y="220" as="sourcePoint" />
            <mxPoint x="846.0000000000002" y="240.21000000000004" as="targetPoint" />
            <Array as="points">
              <mxPoint x="956" y="220.13" />
              <mxPoint x="956" y="240.13" />
            </Array>
          </mxGeometry>
        </mxCell>
        <mxCell id="YluIrXPb2VJz5zlcLolb-47" value="&lt;div style=&quot;line-height: 70%;&quot;&gt;&lt;font style=&quot;font-size: 9px; line-height: 70%;&quot;&gt;Проверка вторсырья&lt;/font&gt;&lt;div&gt;&lt;font style=&quot;font-size: 9px; line-height: 70%;&quot;&gt;с существующим именем&lt;/font&gt;&lt;/div&gt;&lt;/div&gt;" style="text;html=1;align=center;verticalAlign=middle;whiteSpace=wrap;rounded=0;" parent="1" vertex="1">
          <mxGeometry x="819" y="193" width="200" height="30" as="geometry" />
        </mxCell>
        <mxCell id="YluIrXPb2VJz5zlcLolb-48" value="" style="endArrow=block;html=1;rounded=0;exitX=1.3;exitY=0.021;exitDx=0;exitDy=0;exitPerimeter=0;entryX=1.3;entryY=0.064;entryDx=0;entryDy=0;entryPerimeter=0;endFill=1;" parent="1" edge="1">
          <mxGeometry width="50" height="50" relative="1" as="geometry">
            <mxPoint x="846.0000000000002" y="270" as="sourcePoint" />
            <mxPoint x="846.0000000000002" y="290.21000000000004" as="targetPoint" />
            <Array as="points">
              <mxPoint x="956" y="270.13" />
              <mxPoint x="956" y="290.13" />
            </Array>
          </mxGeometry>
        </mxCell>
        <mxCell id="YluIrXPb2VJz5zlcLolb-49" value="&lt;div style=&quot;line-height: 70%;&quot;&gt;&lt;font size=&quot;1&quot;&gt;Формирование модели&amp;nbsp;&lt;/font&gt;&lt;/div&gt;&lt;div style=&quot;line-height: 70%;&quot;&gt;&lt;font size=&quot;1&quot;&gt;для записи в базу данных&lt;/font&gt;&lt;/div&gt;" style="text;html=1;align=center;verticalAlign=middle;whiteSpace=wrap;rounded=0;" parent="1" vertex="1">
          <mxGeometry x="810" y="243" width="200" height="30" as="geometry" />
        </mxCell>
        <mxCell id="YluIrXPb2VJz5zlcLolb-52" value="" style="endArrow=classic;html=1;rounded=0;exitX=1.009;exitY=0.579;exitDx=0;exitDy=0;exitPerimeter=0;entryX=-0.011;entryY=0.192;entryDx=0;entryDy=0;entryPerimeter=0;" parent="1" source="YluIrXPb2VJz5zlcLolb-45" target="YluIrXPb2VJz5zlcLolb-53" edge="1">
          <mxGeometry width="50" height="50" relative="1" as="geometry">
            <mxPoint x="885" y="400" as="sourcePoint" />
            <mxPoint x="1070" y="375" as="targetPoint" />
          </mxGeometry>
        </mxCell>
        <mxCell id="YluIrXPb2VJz5zlcLolb-54" value="&lt;div style=&quot;line-height: 70%;&quot;&gt;&lt;font size=&quot;1&quot;&gt;Запрос на запись модели в базу данных&lt;/font&gt;&lt;/div&gt;" style="text;html=1;align=center;verticalAlign=middle;whiteSpace=wrap;rounded=0;" parent="1" vertex="1">
          <mxGeometry x="856" y="323" width="200" height="30" as="geometry" />
        </mxCell>
        <mxCell id="YluIrXPb2VJz5zlcLolb-55" value="" style="endArrow=block;html=1;rounded=0;entryX=1.023;entryY=0.764;entryDx=0;entryDy=0;entryPerimeter=0;exitX=0;exitY=0.75;exitDx=0;exitDy=0;dashed=1;dashPattern=12 12;endFill=1;" parent="1" source="YluIrXPb2VJz5zlcLolb-53" target="YluIrXPb2VJz5zlcLolb-45" edge="1">
          <mxGeometry width="50" height="50" relative="1" as="geometry">
            <mxPoint x="353" y="153" as="sourcePoint" />
            <mxPoint x="133" y="153" as="targetPoint" />
          </mxGeometry>
        </mxCell>
        <mxCell id="YluIrXPb2VJz5zlcLolb-56" value="&lt;div style=&quot;line-height: 70%;&quot;&gt;&lt;font size=&quot;1&quot;&gt;Возврат сохраненной модели&lt;/font&gt;&lt;/div&gt;" style="text;html=1;align=center;verticalAlign=middle;whiteSpace=wrap;rounded=0;" parent="1" vertex="1">
          <mxGeometry x="849" y="363" width="200" height="30" as="geometry" />
        </mxCell>
        <mxCell id="YluIrXPb2VJz5zlcLolb-57" value="" style="endArrow=block;html=1;rounded=0;entryX=0.939;entryY=0.825;entryDx=0;entryDy=0;entryPerimeter=0;exitX=-0.01;exitY=0.967;exitDx=0;exitDy=0;dashed=1;dashPattern=12 12;exitPerimeter=0;endFill=1;" parent="1" source="YluIrXPb2VJz5zlcLolb-45" target="YluIrXPb2VJz5zlcLolb-38" edge="1">
          <mxGeometry width="50" height="50" relative="1" as="geometry">
            <mxPoint x="827" y="436" as="sourcePoint" />
            <mxPoint x="598" y="435" as="targetPoint" />
          </mxGeometry>
        </mxCell>
        <mxCell id="YluIrXPb2VJz5zlcLolb-58" value="&lt;div style=&quot;line-height: 70%;&quot;&gt;&lt;font size=&quot;1&quot;&gt;Возврат сохраненной модели&lt;/font&gt;&lt;/div&gt;" style="text;html=1;align=center;verticalAlign=middle;whiteSpace=wrap;rounded=0;" parent="1" vertex="1">
          <mxGeometry x="613" y="410" width="200" height="30" as="geometry" />
        </mxCell>
        <mxCell id="YluIrXPb2VJz5zlcLolb-59" value="" style="endArrow=block;html=1;rounded=0;entryX=0.985;entryY=0.567;entryDx=0;entryDy=0;entryPerimeter=0;dashed=1;dashPattern=12 12;endFill=1;" parent="1" edge="1">
          <mxGeometry width="50" height="50" relative="1" as="geometry">
            <mxPoint x="590" y="466" as="sourcePoint" />
            <mxPoint x="364" y="465" as="targetPoint" />
          </mxGeometry>
        </mxCell>
        <mxCell id="YluIrXPb2VJz5zlcLolb-60" value="&lt;div style=&quot;line-height: 70%;&quot;&gt;&lt;font size=&quot;1&quot;&gt;Возврат сохраненной модели с успешным статус кодом&lt;/font&gt;&lt;/div&gt;" style="text;html=1;align=center;verticalAlign=middle;whiteSpace=wrap;rounded=0;" parent="1" vertex="1">
          <mxGeometry x="379" y="437" width="200" height="30" as="geometry" />
        </mxCell>
        <mxCell id="YluIrXPb2VJz5zlcLolb-61" value="" style="endArrow=block;html=1;rounded=0;entryX=0.985;entryY=0.567;entryDx=0;entryDy=0;entryPerimeter=0;dashed=1;dashPattern=12 12;endFill=1;" parent="1" edge="1">
          <mxGeometry width="50" height="50" relative="1" as="geometry">
            <mxPoint x="343" y="485" as="sourcePoint" />
            <mxPoint x="120" y="485" as="targetPoint" />
          </mxGeometry>
        </mxCell>
        <mxCell id="YluIrXPb2VJz5zlcLolb-62" value="&lt;div style=&quot;line-height: 70%;&quot;&gt;&lt;font size=&quot;1&quot;&gt;Уведомление об успешном&lt;/font&gt;&lt;/div&gt;&lt;div style=&quot;line-height: 70%;&quot;&gt;&lt;font size=&quot;1&quot;&gt;&amp;nbsp;добавлении вторсырья&lt;/font&gt;&lt;/div&gt;" style="text;html=1;align=center;verticalAlign=middle;whiteSpace=wrap;rounded=0;" parent="1" vertex="1">
          <mxGeometry x="132" y="457" width="200" height="30" as="geometry" />
        </mxCell>
        <mxCell id="YluIrXPb2VJz5zlcLolb-63" value="" style="endArrow=none;html=1;rounded=0;entryX=0.5;entryY=1;entryDx=0;entryDy=0;dashed=1;dashPattern=12 12;" parent="1" target="YluIrXPb2VJz5zlcLolb-53" edge="1">
          <mxGeometry width="50" height="50" relative="1" as="geometry">
            <mxPoint x="1086" y="610" as="sourcePoint" />
            <mxPoint x="1086" y="80" as="targetPoint" />
          </mxGeometry>
        </mxCell>
        <mxCell id="YluIrXPb2VJz5zlcLolb-53" value="" style="rounded=0;whiteSpace=wrap;html=1;" parent="1" vertex="1">
          <mxGeometry x="1075" y="330" width="20" height="80" as="geometry" />
        </mxCell>
      </root>
    </mxGraphModel>
  </diagram>
</mxfile>
